# xmcd CD database file
#
# Track frame offsets:
#	150
#	31757
#	49323
#	68737
#	85590
#	108181
#	122706
#	156139
#	180885
#	210375
#	225801
#	266588
#	296038
#	313374
#
# Disc length: 4463 seconds
#
# Revision: 0
# Processed by: cddbd v1.5.2PL0 Copyright (c) Steve Scherf et al.
# Submitted via: CDex 1.77
#
DISCID=b1116d0e
DTITLE=Various Artist - Best Of Salsa Non Stop - CD1
DYEAR=1900
DGENRE=Salsa
TTITLE0=Charanga Casino - Lbavba
TTITLE1=Letube - Eotchan
TTITLE2=Papaito - Carameloakilo
TTITLE3=Los Garicia - Lacolegrla
TTITLE4=Papaito - Cmmarom
TTITLE5=Kaoma - Lamaada
TTITLE6=Libre feat. M Drquendd - Gozalavida
TTITLE7=Papaito - Fuego enel ouartelde bamberos
TTITLE8=Aimalatina - desengodos de lavido
TTITLE9=Salor - Lacomba
TTITLE10=Charanga Tapa - Vamonospolmonte
TTITLE11=Conjunto Yumur - La paella
TTITLE12=Gloria Estefan - you'll bemine
TTITLE13=Louis Ramnezray de la Paz - uuva
EXTD=
EXTT0=
EXTT1=
EXTT2=
EXTT3=
EXTT4=
EXTT5=
EXTT6=
EXTT7=
EXTT8=
EXTT9=
EXTT10=
EXTT11=
EXTT12=
EXTT13=
PLAYORDER=
